# xmcd CD database file
#
# Track frame offsets:
#	150
#	7940
#	15508
#	22992
#	30476
#	38031
#	45417
#	52901
#	60483
#	75796
#	83727
#	91350
#	99349
#	107098
#	114762
#	122483
#	130288
#	137827
#	145589
#	153310
#	160974
#	171146
#	186432
#	201510
#	209161
#	216116
#	223559
#	231447
#	239029
#	246625
#	254164
#	261732
#
# Disc length: 3688 seconds
#
# Revision: 0
# Processed by: cddbd v1.5PL3 Copyright (c) Steve Scherf et al.
# Submitted via: CDex 1.50
#
DISCID=c00e6620
DTITLE=Conrad Cork - The New Guide to Harmony With Lego Bricks - Playalongs [CD2]
DYEAR=1990
DGENRE=Jazz
TTITLE0=Baubles Sequence 1
TTITLE1=Baubles Sequence 2
TTITLE2=Baubles Sequence 3
TTITLE3=Baubles Sequence 4
TTITLE4=Halfnelsons Sequence 1
TTITLE5=Halfnelsons Sequence 2
TTITLE6=Halfnelsons Sequence 3
TTITLE7=Halfnelsons Sequence 4
TTITLE8=PullBacks with BootStrap joins
TTITLE9=Overruns Joined by Homers
TTITLE10=To Goes Joined by Bootstraps
TTITLE11=Extended Cadences Joined by Stellas
TTITLE12=Long Cadences Joined by Highjumps
TTITLE13=Rainy Cadences Joined by Bootstraps
TTITLE14=Starlight Cadences Joined by Downwinders
TTITLE15=Surprise Sad Endings Joined by Cherokees
TTITLE16=Surprise Straight Endings Joined by Downwinders
TTITLE17=Simple Tension Endings joined by BootStraps
TTITLE18=Supertension Endings joined by followthroughs Sequence 1
TTITLE19=Supertension Endings joined by followthroughs Sequence 2
TTITLE20=Supertension Endings joined by followthroughs Sequence 3
TTITLE21=Rhythm Turnarounds, SPOTs and POTs with Cherokee launchers
TTITLE22=Pennies Turnarounds, IV'n'Backs, with BootStrap launchers
TTITLE23=Dominant Substitution with BootStrap joins
TTITLE24=GDS cadences with Cherokee joins
TTITLE25=Night and Day cadences joined by BackSliders
TTITLE26=Stablemates cadences with Half Nelson joins
TTITLE27=Coltrane Substitutions joined by New Horizons Sequence 1
TTITLE28=Coltrane Substitutions joined by New Horizons Sequence 2
TTITLE29=Yardbird cadences joined by Baubles
TTITLE30=Rainbow cadences joined by Stellas
TTITLE31=Rainbow cadences joined by Stellas - ballad tempo
EXTD=YEAR: 1990
EXTT0=
EXTT1=
EXTT2=
EXTT3=
EXTT4=
EXTT5=
EXTT6=
EXTT7=
EXTT8=
EXTT9=
EXTT10=
EXTT11=
EXTT12=
EXTT13=
EXTT14=
EXTT15=
EXTT16=
EXTT17=
EXTT18=
EXTT19=
EXTT20=
EXTT21=
EXTT22=
EXTT23=
EXTT24=
EXTT25=
EXTT26=
EXTT27=
EXTT28=
EXTT29=
EXTT30=
EXTT31=
PLAYORDER=
